<svg xmlns="http://www.w3.org/2000/svg" viewBox="0 0 1085.17 431.62"><defs><style>.cls-1{fill:#c22134;}.cls-2{fill:#e64425;}.cls-3{fill:#e22027;}.cls-4{fill:#841a50;}.cls-5{fill:#c32048;}.cls-6{fill:#831d52;}.cls-7{fill:#a91f2f;}.cls-8{fill:#c42048;}.cls-9{fill:#212122;}.cls-10{fill:#101111;}.cls-11{fill:#e22227;}.cls-12{fill:#161717;}.cls-13{fill:#651749;}</style></defs><title>logo</title><g id="Layer_8" data-name="Layer 8"><path class="cls-1" d="M352.78,329.47a435.94,435.94,0,0,1-29.15,50.27c-5.35,2.74-10.6,5.71-16.08,8.16-15.31,6.88-31.39,10.12-47.5,4.39-23.26-8.26-35.28-26.65-35.51-52.63-.44-50.6,16.61-97.5,32-144.54,17.3-52.85,38.28-104.39,59.63-155.74,5.09-12.22,8.35-25.34,16.24-36.33,16.94-1.64,33.74-1.87,49.87,4.77-.38,1.88-2.26,2.38-2.52,5.32C379,21.52,387.05,25.19,387.5,33c1,17-1.66,33.46-6.3,49.35-10.61,36.34-24,71.8-34.61,108.2-9,30.87-20.64,61.09-25.18,93-1.84,12.94-5.66,26.08-1.56,40,2.59,8.81,7,10,14.15,9C340.3,331.76,346.08,327.82,352.78,329.47Z"/><path class="cls-2" d="M143,6.55c26.36,7,47.4,21.41,62,44.72a608.44,608.44,0,0,1,2.66,82.81c-1.87,46.64-7.12,92.58-19.06,137.8-6.15,23.31-17.14,44.83-23.58,68-.72.15-1.45.26-2.18.34-7.64-.62-9.39-7.4-11.87-12.48-9.62-19.64-15.7-40.53-20.27-61.87l24.8-45.42c-8.72-.22-15.69,5.82-23.89,4.13-7.44-.81-7.57-7.36-7.87-12-2-30-11.68-58.09-20.21-86.51C99.06,111.2,87.7,99.26,86.12,83.32c11.59-22.56,29.21-40.94,43.18-61.86C133,16,135.25,8.57,143,6.55Z"/><path class="cls-3" d="M352.78,329.47c-6.7-1.65-12.48,2.29-18.78,3.09-7.12.91-11.56-.23-14.15-9-4.1-13.89-.28-27,1.56-40,4.54-31.9,16.18-62.12,25.18-93,10.6-36.4,24-71.86,34.61-108.2C385.84,66.47,388.48,50,387.5,33c-.45-7.82-8.46-11.49-7.72-19.87.26-2.94,2.14-3.44,2.52-5.32,63.14,17.58,98.25,95.39,66.86,154.71C419.12,219.28,385.07,273.91,352.78,329.47Z"/><path class="cls-4" d="M332.43,3.05c-7.89,11-11.15,24.11-16.24,36.33-21.35,51.35-42.33,102.89-59.63,155.74-15.41,47-32.46,93.94-32,144.54.23,26,12.25,44.37,35.51,52.63,16.11,5.73,32.19,2.49,47.5-4.39,5.48-2.45,10.73-5.42,16.08-8.16C307,407,282.46,422.53,251.48,428.57c-14-6.32-26.14-15.56-38.75-24.09-9.27-6.27-15-17.28-27-19.88-.16-1.64-.33-3.28-.49-4.91,4.16-9.85,4-20.59,6.34-30.83,8.59-37.46,21.72-73.41,34.51-109.57C242.82,192,257.25,144,267,94.72c4.33-21.9,9.26-43.85,8.9-66.44C291.75,13.21,311.05,5.8,332.43,3.05Z"/><path class="cls-5" d="M275.88,28.28c.36,22.59-4.57,44.54-8.9,66.44C257.25,144,242.82,192,226.1,239.29c-12.79,36.16-25.92,72.11-34.51,109.57-2.35,10.24-2.18,21-6.34,30.83-7.83-10.58-17.8-19.68-22.46-32.45.08-1.53.15-3.05.23-4.58l2-2.8c6.44-23.15,17.43-44.67,23.58-68,11.94-45.22,17.19-91.16,19.06-137.8A608.44,608.44,0,0,0,205,51.27c11.38,13.47,15.41,30.07,19.91,49.32,7.81-13.37,14.4-24.71,21-36C254,50.89,261.86,37,275.88,28.28Z"/><path class="cls-6" d="M406.51,376.69c.16-30.23,24.08-54,53.78-53.45,30.27.55,53.17,24.13,53,54.5-.21,30.14-24,53.64-54,53.38S406.34,407.28,406.51,376.69Z"/><path class="cls-3" d="M86.12,83.31c1.58,16,12.94,27.89,17.4,42.73,8.53,28.42,18.26,56.5,20.21,86.51.3,4.65.43,11.2,7.87,12-36.35,8-67.61-2.74-94.95-26.55C30,192.2,23,186.25,19.57,177.52c4.62-14.27,15.61-24.46,23.33-36.74,12.28-19.53,29-36,39-57Z"/><path class="cls-7" d="M81.94,83.75c-10,21-26.76,37.5-39,57-7.72,12.28-18.71,22.47-23.33,36.74-34.91-46-22.83-119.1,25.22-152.69C60.25,42.53,73,61.92,81.94,83.75Z"/><path class="cls-8" d="M81.94,83.75C73,61.92,60.25,42.53,44.79,24.83,74.43,2.11,107.3-3.26,143,6.55c-7.73,2-10,9.41-13.68,14.91-14,20.92-31.59,39.3-43.18,61.86Z"/><path class="cls-9" d="M800.25,168.3c0-29.73.91-59.51-.3-89.19-.9-21.94,4.63-32,29.61-31.56,22.94.41,30,8.63,26.4,29.41-5.33,30.72,5.47,44.53,38,39.16,20.93-3.45,18.58,12.58,18.09,25.5-.49,13.1,5.43,32.59-18.19,29.15-36.69-5.35-41.21,14.15-38.14,43.1,1.5,14.12-.41,28.58.64,42.77,1.18,16,9.49,28.74,26.66,27.21,36.07-3.2,30,21.53,28.82,41.82-1.57,26.94-23.5,14-35.34,14-45.61.1-71-22.51-74.79-68-2.81-34.24-.55-68.9-.55-103.38Z"/><path class="cls-10" d="M561.41,119.49c55.76-7.69,55.62-7.64,72.76,41.79,11.17,32.23,22.81,64.29,37,104.14,16.13-47.19,29.66-87.34,43.61-127.34,6.36-18.22,43-31.31,57.69-21.08,7.87,5.48,4.42,13.2,2.21,19.15q-33.24,89.74-67.43,179.13c-6,15.93-17.37,24.39-35.08,25.08-17.54.69-31-5.7-37.06-21.8C610.15,252.59,586.06,186.3,561.41,119.49Z"/><path class="cls-11" d="M163,342.66c-.08,1.53-.15,3-.23,4.58-4.45.63-5.06,4.65-7.1,7.61-6.24,9-7.68,21.18-17.85,27.65-24.5-30.95-27.66-82.56-7.15-116.65,4.57,21.34,10.65,42.23,20.27,61.87,2.48,5.08,4.23,11.86,11.87,12.48C162.89,341,163,341.84,163,342.66Z"/><path class="cls-12" d="M933.4,251.78c0-20.25-.94-40.56.24-60.75,2.79-47.83,29.53-73.38,77.32-74.94,13.09-.42,26.21,0,39.32-.12,17.94-.18,34.34-3.63,34.17,25.83-.17,28.64-13.68,29.76-35.12,29.82-59.11.16-59.12.73-59.2,59.55,0,27.4-1.41,54.9.42,82.18,1.57,23.35-8.78,27.33-29.32,27.6-21.71.28-30.15-6.2-28.24-28.43C934.71,292.41,933.35,272,933.4,251.78Z"/><path class="cls-7" d="M137.84,382.5c10.17-6.47,11.61-18.61,17.85-27.65,2-3,2.65-7,7.1-7.61,4.66,12.77,14.63,21.87,22.46,32.45.16,1.63.33,3.27.49,4.91-1.37,11.52-.33,23.39-4.89,34.46C162.57,411.51,148.44,399.09,137.84,382.5Z"/><path class="cls-13" d="M180.85,419.06c4.56-11.07,3.52-22.94,4.89-34.46,11.95,2.6,17.72,13.61,27,19.88,12.61,8.53,24.77,17.77,38.75,24.09C226.79,433.89,203.17,431.26,180.85,419.06Z"/><path class="cls-7" d="M163,342.66c-.06-.82-.13-1.64-.19-2.46.73-.08,1.46-.19,2.18-.34Z"/></g></svg>