<?xml version="1.0" encoding="utf-8"?>
<!-- Generator: Adobe Illustrator 22.1.0, SVG Export Plug-In . SVG Version: 6.00 Build 0)  -->
<svg version="1.1" id="Layer_1" xmlns="http://www.w3.org/2000/svg" xmlns:xlink="http://www.w3.org/1999/xlink" x="0px" y="0px"
	 viewBox="0 0 866 298.3" style="enable-background:new 0 0 866 298.3;" xml:space="preserve">
<style type="text/css">
	.st0{fill:#F16464;}
</style>
<g>
	<path class="st0" d="M19.7,119c-4.1-3-24.2-18.9-16.2-43c0,0,1.4-4,5.2-6.2c3-1.6,8-2.2,12.7,0.5c0,0,4.4,1.4,1.9,7.1
		c-1.9,4.6-6.4,35.7,21.4,40.2c5.2,0.5,11,0.6,16.8,0.3c36.3-2.4,86.8-24.7,158.8-69.5c1.1-0.9,24.2-15.6,48.9-28.1
		c15-7.7,27.8-13,38.1-15.7c14.2-4,23.6-3.5,29,1.7c1.4,1.3,5.2,5,5.6,13.6c0.4,7.2-1.6,15.7-6.5,25.5
		c-2.9,6.9-24.2,52.5-88.2,111.5c-60.1,54.9-76.9,105.6-66.1,124.3c0,0,2.2,4.2,5.4,3.5c95.5-15.1,151.6-109,164.3-132.5
		c-2.4-3.7-4.3-7.7-5.6-11.8c-4.7-13.5-6.8-26.9-5.2-38.9c1.3-10.3,5-18.9,10.3-24.3c4.5-4.5,9.7-5.9,14.1-4.3
		c3.6,1.4,9.6,5.7,9.3,21.6c-0.2,14.4-4.4,35.2-11.4,56.6c2.7,3.4,5.7,6.2,8.4,8.3c1.9,1.5,2.1,4.3,0.4,6.6c-1.7,2-4.7,2.5-6.6,1
		c-2.2-1.5-4.3-3.6-6.2-5.6c-5.1,11.4-18.1,37-40.2,62.9c-17,19.8-35.5,35.8-55.6,47.5c-22.5,13-46.7,20.6-72.1,22.2
		c-10.4,0.7-14.7-2-14.7-2c-11.7-7.4-18.4-19-19.7-34.2c-1-13.3,2.4-28.9,9.9-44.8c7.5-15.6,18.3-30.4,31.6-42.5
		c10.8-10.1,23.5-20.1,36.5-30.6c28.9-23.2,61.7-49.3,83.3-81.6c23.1-34.4,12.8-44.1,12.5-44.3c0,0-0.3-0.3-0.5-0.2
		c-2.7-2.9-9.9-3-20.5,0c-9.4,2.6-21.7,7.6-36.1,15c-14.4,7.1-27.8,15.3-36.9,20.6c-2.8,1.6-11.1,6.9-11.1,6.9
		c-47.1,29.6-85,49-115.9,60.3c-29.7,10.6-53.7,13.8-73.5,9.3C27.9,124,19.7,119,19.7,119z M360,81.8c-1.1,0.1-2.8,1.3-3.3,1.9
		c-6.2,6.2-12.2,25.8-2.5,53.1c0.5,1.6,1.1,3,1.9,4.3c5.2-17.8,8.2-34,8.4-46c0.1-3.9-0.4-6.9-1-8.8C362.2,81.7,360,81.8,360,81.8z"
		/>
	<path class="st0" d="M859.9,109.6c-1.9,0.1-3.3,1.1-4.5,2.8c-4.4,6.9-8.5,13.3-12.3,19.1c0,0-8.7,13-20.5,17.9
		c1.2-3.1,2.4-6.5,3.1-9.6c0,0,15.2-55.3-15.5-58.7c-21.6-2.6-41.4,14.1-43.9,36.1c-0.4,0.4-0.7,0.8-1,1.3c-0.4,0.7-0.9,1.4-1.3,2.1
		c-4,4.3-7.3,9.7-10,15.7c-35.7,53.5-50.6,52.3-50.6,52.3c-5.9-3.2,5.8-26.5,19.7-50.6c0,0,31-47.2,4.4-50.9
		c-8.8-1.4-16.4,3.6-24.1,11.3c-17.1,17.5-36.2,50.5-45.1,72.9c2.4-8.4,6.6-19.2,13.3-32c6.4-12.3,16-28.2,26.1-44.1
		c2-2.9-0.1-6.6-3.4-6.4l-7.5,0.8c-4.4,0.3-8.9,2.8-11.2,6.9c-6.5,10.4-13.7,22.9-19.4,34.9c-41,65.9-58.2,64.4-58.2,64.4
		c-10.3-5.4,32.8-73,48-96.2c2-3.2-0.1-7.2-3.7-7l-8,0.5c-3.6,0.2-6.7,2.1-9,5c-1.7,2.1-3.4,4.7-5.7,8.1c-0.5-1.6-1-3-1.5-4.3
		c-1.1-1.6-2.9-3.7-5.9-4.9c-2.5-0.9-5.8-1-5.8-1c-21.9-0.9-53.9,28.4-67.6,58.9c-33.1,49-47.2,47.8-47.2,47.8
		c-7.1-3.4,9.5-34.2,27.7-61.3c15.1-22.3-3.4-32.4-19.9-35.5c4-7.2,11.8-22.7,7.8-27.4c-4-5.3-14.5-6.3-24.8,1.1
		c-10.1,7.3-20.4,27.2,7.1,31.1c-3.9,7.6-8.6,16.4-14.5,26.6c-0.1,0.2-0.3,0.4-0.4,0.6c-12,19.8-21.9,34-30,44.2
		c0,0-9.3,12.4-21,20.9c-8.3,6-18,10-26.4,6.2c0,0-16-9.1,8-48.4c0.6-0.6,0.8-1.2,1.1-1.7c2.4,4.3,9,5.2,9,5.2
		c13.7,1.8,24.3-6.6,30.8-14.5c9.9-12.3,12.3-24.6,12.3-24.6c0.7-5.3,0.2-9.4-1.7-12.6c-0.8-1.6-2.7-3.7-5.7-4.9
		c-2.5-0.9-5.8-1-5.8-1c-19.8-0.9-47.5,22.6-62.8,49.5c0,0-10.2,16.9-10.4,33.2c-0.2,11.6,5.4,22.7,19.6,27.3
		c10.6,3.4,22.5,0.2,32.2-6c15-9.5,25.7-24,25.7-24c9.7-12.2,18.8-26,25.3-36.2c0.3-0.2,0.5-0.5,0.7-0.8c1.1-1.9,2.6-4.3,4.2-7.2
		c0.7-1.1,1.2-2,1.8-2.9c0.1-0.2,0.2-0.4,0.2-0.6c4.4-7.6,9.7-17.4,14.7-27.8c6,1,17.5,4.4,9,16.8c-8.5,11.9-17.4,26.6-23.2,40.7
		c-16.8,42.1,7.9,41.3,7.9,41.3c11.9,0.9,28.4-16.6,42.5-35.4c-6.1,33.4,12.9,30.9,12.9,30.9c3.3-0.2,6.1-1,6.1-1
		c8.3-2.7,18.1-10.5,29.1-23.7c1.1-1.5,2.5-2.9,3.7-4.4c-5.6,27,11.9,26.4,11.9,26.4c13.8,1,33.4-21.9,48.9-43.4
		c-3.8,14.3-5.7,31.6,4.8,37.6c1.6,1,4.1-0.3,4.7-2.2c0,0,12.6-35.5,30.7-63.5c17.9-27.8,30.9-38.9,34.7-35.5c0,0,3.3,0.6-12.2,27.7
		c0,0-11.7,22.6-15,31.1c-16.9,42.1,8.6,41.3,8.6,41.3c13,0.9,31.8-20,47-40.7c-0.6,5.5-0.6,11.8,1.2,17.7
		c2.7,9.5,11.7,18.5,26,18.3c17.6-0.1,33.2-15.4,42.7-33.1c18.3-5.4,30.9-24.7,30.9-24.7c5.5-8.1,9.9-15,12.6-19.4
		C863.4,111.9,862.1,109.5,859.9,109.6z M413.7,148.8c26.5-36.6,34.5-34.6,35.6-34.2c0,0,4.4,1.6,1.4,11.5c0,0-3,11.3-12.5,21.6
		c0,0-5.1,5.6-11.7,8.5c-3.6,1.3-8.3,2.2-11.6,0.8C414.9,157,410,154.8,413.7,148.8z M492.2,104.6c-14.6-2.1-11.4-7.8-11.4-7.8
		c5.2-10.1,15.5-14.1,17.9-13.7C500.6,83.5,494.8,98.3,492.2,104.6z M591.4,155.4c-3.2,4.9-8.9,13.3-15.7,21.4
		c-8.8,10.5-16.9,17.4-23.6,20.3c-1.1,0.3-2.5,0.2-3-0.1c-10.8-5.6,17.1-47.1,17.1-47.1c33.7-48.7,43-46.6,44.1-46.1
		c0.8,0.5,1.4,1,1.6,1.8c2.1,3.7,0.3,10.5-0.6,12.8C604.7,129.1,597.2,142.1,591.4,155.4z M800.2,169.3c-7.2,9-15.6,14.8-20.3,14
		c0,0-22.8,0.4-7.2-38.9c3.9,5.5,10.6,12.5,21.2,14.6c4.6,1.1,8.8,1.3,12.9,1.1C804.8,163.5,802.5,166.7,800.2,169.3z M814.9,141.4
		c-1.2,3.7-2.7,7.4-4.2,11c-4.1,0.3-8.5,0-13.2-1.1c0,0-14.5-3.2-16.9-20.1c4.1-5.8,9.5-12.2,15.7-16.5c3.4-2.2,2.5-7.1-1.4-7.4
		c-2.7-0.4-6.6-0.1-11.3,1c3.3-9.1,10.4-20.4,23.9-20.2C807.4,88.2,830.9,87.2,814.9,141.4z"/>
</g>
</svg>
